. 
  
http://www.torrenting.com/        :     Greatest Movie Tracker on The Net!!!
 
http://www.Torrenting.com          :     Once & For all ;)


               www . Torrenting . Com 

(((((((((((((= Enjoy No RAR releases =))))))))))))))))))))


...................................NFO:....................................

.[pre]  
    *********** ****    ****      ***      ******** *********** ****    *** **********
           *+*     +*+*+* *+*+*+   *+* *+*   *+*    *+*    *+*     *+*+*   *+* *+*        
           +*+     +*+ +*+*+ +*+  +*+   +*+  +*+           +*+     *+*+*+  +*+ +*+        
           +$+     +$+  +*+  +$+ +$++*++$++* *$*           +$+     +$+ +*+ +$+ +$++*++$  
           +$+     +$+       +$+ +$+     +$+ +$+   +$+$    +$+     +$+  +$+$+$ +$+        
           $+$     $+$       $+$ $+$     $+$ $+$    $+$    $+$     $+$   $+$+$ $+$        
       $$$$$$$$$$$ $$$       $$$ $$$     $$$  $$$$$$$$ $$$$$$$$$$$ $$$    $$$$ $$$$$$$$$$     
                                                



                           Another Fine Release Brought to you from - IMAGiNE                   
                                                 

********************************************************************************************************************                                
                              Never Back Down 2 DVDSCR 2011 XViD - IMAGiNE
********************************************************************************************************************

Ripper ...........:IMAGiNE                                             IMDB Rating.......:6.5/10                            
Video Codec.......:XVID                                                Release Date......:25/08/11
Audio Codec.......:AC3                                                 Theatre Date......:nil
Audio Bitrate.....:192                                                 Runtime...........:1h 42mn
Subtitles.........:NIL                                                 Language..........:ENGLISH
Resolution........:720 x 400                                           IMDb URL..........:http://www.imdb.com/title/tt1754264/


[color=yellow]DETAILS:[/color]

Video
ID                               : 0
Format                           : MPEG-4 Visual
Format profile                   : Advanced Simple@L5
Format settings, BVOP            : 2
Format settings, QPel            : No
Format settings, GMC             : No warppoints
Format settings, Matrix          : Default (H.263)
Muxing mode                      : Packed bitstream
Codec ID                         : XVID
Codec ID/Hint                    : XviD
Duration                         : 1h 42mn
Bit rate                         : 1 703 Kbps
Width                            : 720 pixels
Height                           : 400 pixels
Display aspect ratio             : 16:9
Frame rate                       : 29.970 fps
Color space                      : YUV
Chroma subsampling               : 4:2:0
Bit depth                        : 8 bits
Scan type                        : Progressive
Compression mode                 : Lossy
Bits/(Pixel*Frame)               : 0.197
Stream size                      : 1.22 GiB (89%)
Writing library                  : XviD 64

Audio
ID                               : 1
Format                           : AC-3
Format/Info                      : Audio Coding 3
Mode extension                   : CM (complete main)
Codec ID                         : 2000
Duration                         : 1h 42mn
Bit rate mode                    : Constant
Bit rate                         : 192 Kbps
Channel(s)                       : 2 channels
Channel positions                : Front: L R
Sampling rate                    : 48.0 KHz
Bit depth                        : 16 bits
Compression mode                 : Lossy
Stream size                      : 141 MiB (10%)
Alignment                        : Aligned on interleaves
Interleave, duration             : 33 ms (1.00 video frame)
Interleave, preload duration     : 512 ms







[color=yellow]SOURCES:[/color]

VIDEO:.............CW Thanks matey
AUDIO:.............CW Thanks matey

[color=yellow]NOTES:[/color]

IMAGiNE bringing you another release..........
Never Back Down 2 dvdscr.........
Ok folks heres another nice dvdscr.......
source was good so not much work needed, 
made a script to sharpen a bit resize ect
audio ac3 remuxed to our encode.
Enjoy!


[color=yellow]SCREENS:[/color]

[IMG]http://i.imgur.com/Md4t9.png[/IMG]
[IMG]http://i.imgur.com/7TUkn.png[/IMG]
[IMG]http://i.imgur.com/VzRrx.png[/IMG]
[IMG]http://i.imgur.com/xR4Yh.png[/IMG]
[IMG]http://i.imgur.com/DXakv.png[/IMG]
[IMG]http://i.imgur.com/mQFAu.png[/IMG]
[IMG]http://i.imgur.com/TghfM.png[/IMG]

[color=yellow]GREETS:[/color]

FLAWL3SS,ViSiON,Rx,ELEKTRI4KA,ADDiCTED,Autotron,
And to all the other p2p grps past and present 

[COLOR=RED]Looking for these,syncers,cammers,audio,silver supplier.....Have anything to offer????......
Contact us imaginegroup@hushmail.com[/COLOR][/pre]